<mxfile host="app.diagrams.net" agent="Mozilla/5.0 (Windows NT 10.0; Win64; x64) AppleWebKit/537.36 (KHTML, like Gecko) Chrome/131.0.0.0 Safari/537.36" version="25.0.1">
  <diagram name="Page-1" id="j-pxg9c4v1C3MeclfTMA">
    <mxGraphModel dx="2943" dy="746" grid="1" gridSize="10" guides="1" tooltips="1" connect="1" arrows="1" fold="1" page="1" pageScale="1" pageWidth="1100" pageHeight="850" math="0" shadow="0">
      <root>
        <mxCell id="0" />
        <mxCell id="1" parent="0" />
        <mxCell id="wdKCAiOJMTL116Rih4D4-1" value="2.1" style="swimlane;html=1;fontStyle=0;childLayout=stackLayout;horizontal=1;startSize=26;fillColor=#e0e0e0;horizontalStack=0;resizeParent=1;resizeLast=0;collapsible=1;marginBottom=0;swimlaneFillColor=#ffffff;align=center;rounded=1;shadow=0;comic=0;labelBackgroundColor=none;strokeWidth=1;fontFamily=Verdana;fontSize=12" vertex="1" parent="1">
          <mxGeometry x="-80" y="150" width="160" height="110" as="geometry" />
        </mxCell>
        <mxCell id="wdKCAiOJMTL116Rih4D4-2" value="&lt;span style=&quot;font-size: 18px;&quot;&gt;สร้างลูกค้า&lt;/span&gt;&lt;div&gt;&lt;span style=&quot;font-size: 18px;&quot;&gt;ด้วยตัวเอง&lt;/span&gt;&lt;/div&gt;" style="text;html=1;strokeColor=none;fillColor=none;spacingLeft=4;spacingRight=4;whiteSpace=wrap;overflow=hidden;rotatable=0;points=[[0,0.5],[1,0.5]];portConstraint=eastwest;align=center;" vertex="1" parent="wdKCAiOJMTL116Rih4D4-1">
          <mxGeometry y="26" width="160" height="54" as="geometry" />
        </mxCell>
        <mxCell id="wdKCAiOJMTL116Rih4D4-3" value="&lt;span style=&quot;font-size: 18px; text-wrap-mode: nowrap;&quot;&gt;ผู้ใช้&lt;/span&gt;" style="rounded=0;whiteSpace=wrap;html=1;" vertex="1" parent="1">
          <mxGeometry x="-390" y="260" width="120" height="60" as="geometry" />
        </mxCell>
        <mxCell id="wdKCAiOJMTL116Rih4D4-4" value="" style="endArrow=classic;html=1;rounded=0;exitX=1;exitY=0.25;exitDx=0;exitDy=0;entryX=0.003;entryY=0.172;entryDx=0;entryDy=0;entryPerimeter=0;edgeStyle=orthogonalEdgeStyle;" edge="1" parent="1" source="wdKCAiOJMTL116Rih4D4-3" target="wdKCAiOJMTL116Rih4D4-2">
          <mxGeometry width="50" height="50" relative="1" as="geometry">
            <mxPoint x="-241.27999999999997" y="310" as="sourcePoint" />
            <mxPoint x="-47.76000000000002" y="312.404" as="targetPoint" />
            <Array as="points">
              <mxPoint x="-270" y="270" />
              <mxPoint x="-160" y="270" />
              <mxPoint x="-160" y="185" />
            </Array>
          </mxGeometry>
        </mxCell>
        <mxCell id="wdKCAiOJMTL116Rih4D4-5" value="ข้อมูลลูกค้า" style="edgeLabel;html=1;align=center;verticalAlign=middle;resizable=0;points=[];rotation=0;" vertex="1" connectable="0" parent="wdKCAiOJMTL116Rih4D4-4">
          <mxGeometry x="-0.0639" y="2" relative="1" as="geometry">
            <mxPoint x="-8" y="-25" as="offset" />
          </mxGeometry>
        </mxCell>
        <mxCell id="wdKCAiOJMTL116Rih4D4-6" value="" style="group" vertex="1" connectable="0" parent="1">
          <mxGeometry x="250" y="275" width="190" height="30" as="geometry" />
        </mxCell>
        <mxCell id="wdKCAiOJMTL116Rih4D4-7" value="&lt;font style=&quot;font-size: 18px;&quot;&gt;D1&lt;/font&gt;" style="html=1;dashed=0;whiteSpace=wrap;shape=mxgraph.dfd.dataStoreID;align=left;spacingLeft=3;points=[[0,0],[0.5,0],[1,0],[0,0.5],[1,0.5],[0,1],[0.5,1],[1,1]];container=0;" vertex="1" parent="wdKCAiOJMTL116Rih4D4-6">
          <mxGeometry width="190" height="30" as="geometry" />
        </mxCell>
        <mxCell id="wdKCAiOJMTL116Rih4D4-8" value="&lt;span style=&quot;font-size: 18px; font-weight: 400;&quot;&gt;ลูกค้า&lt;/span&gt;" style="text;strokeColor=none;fillColor=none;html=1;fontSize=24;fontStyle=1;verticalAlign=middle;align=center;container=0;" vertex="1" parent="wdKCAiOJMTL116Rih4D4-6">
          <mxGeometry x="28.5" width="95" height="30" as="geometry" />
        </mxCell>
        <mxCell id="wdKCAiOJMTL116Rih4D4-9" value="" style="endArrow=classic;html=1;rounded=0;exitX=1.017;exitY=0.18;exitDx=0;exitDy=0;exitPerimeter=0;entryX=0;entryY=0.242;entryDx=0;entryDy=0;entryPerimeter=0;edgeStyle=orthogonalEdgeStyle;" edge="1" parent="1" source="wdKCAiOJMTL116Rih4D4-2" target="wdKCAiOJMTL116Rih4D4-7">
          <mxGeometry width="50" height="50" relative="1" as="geometry">
            <mxPoint x="190.00000000000026" y="307.006" as="sourcePoint" />
            <mxPoint x="361.28000000000003" y="310" as="targetPoint" />
          </mxGeometry>
        </mxCell>
        <mxCell id="wdKCAiOJMTL116Rih4D4-11" value="2.2" style="swimlane;html=1;fontStyle=0;childLayout=stackLayout;horizontal=1;startSize=26;fillColor=#e0e0e0;horizontalStack=0;resizeParent=1;resizeLast=0;collapsible=1;marginBottom=0;swimlaneFillColor=#ffffff;align=center;rounded=1;shadow=0;comic=0;labelBackgroundColor=none;strokeWidth=1;fontFamily=Verdana;fontSize=12" vertex="1" parent="1">
          <mxGeometry x="-80" y="330" width="160" height="110" as="geometry" />
        </mxCell>
        <mxCell id="wdKCAiOJMTL116Rih4D4-12" value="&lt;span style=&quot;font-size: 18px;&quot;&gt;สร้างลูกค้า&lt;/span&gt;&lt;div&gt;&lt;span style=&quot;font-size: 18px; background-color: initial;&quot;&gt;ด้วยคำเชิญ&lt;/span&gt;&lt;/div&gt;" style="text;html=1;strokeColor=none;fillColor=none;spacingLeft=4;spacingRight=4;whiteSpace=wrap;overflow=hidden;rotatable=0;points=[[0,0.5],[1,0.5]];portConstraint=eastwest;align=center;" vertex="1" parent="wdKCAiOJMTL116Rih4D4-11">
          <mxGeometry y="26" width="160" height="54" as="geometry" />
        </mxCell>
        <mxCell id="wdKCAiOJMTL116Rih4D4-13" value="" style="endArrow=classic;html=1;rounded=0;exitX=0.999;exitY=0.656;exitDx=0;exitDy=0;entryX=0.003;entryY=0.172;entryDx=0;entryDy=0;entryPerimeter=0;edgeStyle=orthogonalEdgeStyle;exitPerimeter=0;" edge="1" parent="1">
          <mxGeometry width="50" height="50" relative="1" as="geometry">
            <mxPoint x="-270.0000000000001" y="280" as="sourcePoint" />
            <mxPoint x="-79.88" y="380.64" as="targetPoint" />
            <Array as="points">
              <mxPoint x="-159.88" y="299.64" />
              <mxPoint x="-159.88" y="380.64" />
            </Array>
          </mxGeometry>
        </mxCell>
        <mxCell id="wdKCAiOJMTL116Rih4D4-37" value="&lt;span style=&quot;color: rgba(0, 0, 0, 0); font-family: monospace; font-size: 0px; text-align: start; background-color: rgb(251, 251, 251);&quot;&gt;%3CmxGraphModel%3E%3Croot%3E%3CmxCell%20id%3D%220%22%2F%3E%3CmxCell%20id%3D%221%22%20parent%3D%220%22%2F%3E%3CmxCell%20id%3D%222%22%20value%3D%22%E0%B8%82%E0%B9%89%E0%B8%AD%E0%B8%A1%E0%B8%B9%E0%B8%A5%E0%B8%9C%E0%B8%B9%E0%B9%89%E0%B9%83%E0%B8%8A%E0%B9%89%2C%E0%B9%82%E0%B8%A5%E0%B9%82%E0%B8%81%E0%B9%89%2C%E0%B8%9A%E0%B8%A3%E0%B8%B4%E0%B8%A9%E0%B8%B1%E0%B8%97%22%20style%3D%22edgeLabel%3Bhtml%3D1%3Balign%3Dcenter%3BverticalAlign%3Dmiddle%3Bresizable%3D0%3Bpoints%3D%5B%5D%3Brotation%3D0%3B%22%20vertex%3D%221%22%20connectable%3D%220%22%20parent%3D%221%22%3E%3CmxGeometry%20x%3D%22-169.88235294117612%22%20y%3D%22330.3529411764704%22%20as%3D%22geometry%22%2F%3E%3C%2FmxCell%3E%3C%2Froot%3E%3C%2FmxGraphModel%3E&lt;/span&gt;" style="edgeLabel;html=1;align=center;verticalAlign=middle;resizable=0;points=[];" vertex="1" connectable="0" parent="wdKCAiOJMTL116Rih4D4-13">
          <mxGeometry x="0.3444" y="-4" relative="1" as="geometry">
            <mxPoint as="offset" />
          </mxGeometry>
        </mxCell>
        <mxCell id="wdKCAiOJMTL116Rih4D4-38" value="ข้อมูลลูกค้า" style="edgeLabel;html=1;align=center;verticalAlign=middle;resizable=0;points=[];" vertex="1" connectable="0" parent="wdKCAiOJMTL116Rih4D4-13">
          <mxGeometry x="0.2796" y="1" relative="1" as="geometry">
            <mxPoint as="offset" />
          </mxGeometry>
        </mxCell>
        <mxCell id="wdKCAiOJMTL116Rih4D4-39" value="ข้อมูลลูกค้า" style="edgeLabel;html=1;align=center;verticalAlign=middle;resizable=0;points=[];" vertex="1" connectable="0" parent="wdKCAiOJMTL116Rih4D4-13">
          <mxGeometry x="0.2796" y="1" relative="1" as="geometry">
            <mxPoint x="359" y="-86" as="offset" />
          </mxGeometry>
        </mxCell>
        <mxCell id="wdKCAiOJMTL116Rih4D4-40" value="ข้อมูลลูกค้า" style="edgeLabel;html=1;align=center;verticalAlign=middle;resizable=0;points=[];" vertex="1" connectable="0" parent="wdKCAiOJMTL116Rih4D4-13">
          <mxGeometry x="0.2796" y="1" relative="1" as="geometry">
            <mxPoint x="359" y="-46" as="offset" />
          </mxGeometry>
        </mxCell>
        <mxCell id="wdKCAiOJMTL116Rih4D4-15" value="" style="endArrow=classic;html=1;rounded=0;exitX=1.017;exitY=0.18;exitDx=0;exitDy=0;exitPerimeter=0;entryX=-0.009;entryY=0.711;entryDx=0;entryDy=0;entryPerimeter=0;edgeStyle=orthogonalEdgeStyle;" edge="1" parent="1">
          <mxGeometry width="50" height="50" relative="1" as="geometry">
            <mxPoint x="80" y="380" as="sourcePoint" />
            <mxPoint x="252.03999999999996" y="296.33000000000004" as="targetPoint" />
            <Array as="points">
              <mxPoint x="163.75" y="381" />
              <mxPoint x="163.75" y="296" />
            </Array>
          </mxGeometry>
        </mxCell>
        <mxCell id="wdKCAiOJMTL116Rih4D4-17" value="" style="endArrow=classic;html=1;rounded=0;exitX=0.25;exitY=0;exitDx=0;exitDy=0;edgeStyle=orthogonalEdgeStyle;" edge="1" parent="1" source="wdKCAiOJMTL116Rih4D4-8">
          <mxGeometry width="50" height="50" relative="1" as="geometry">
            <mxPoint x="299.9999999999999" y="305" as="sourcePoint" />
            <mxPoint x="-300" y="260" as="targetPoint" />
            <Array as="points">
              <mxPoint x="340" y="275" />
              <mxPoint x="340" y="70" />
              <mxPoint x="-340" y="70" />
              <mxPoint x="-340" y="260" />
            </Array>
          </mxGeometry>
        </mxCell>
        <mxCell id="wdKCAiOJMTL116Rih4D4-18" value="แสดงรายละเอียดลูกค้า" style="edgeLabel;html=1;align=center;verticalAlign=middle;resizable=0;points=[];rotation=0;" vertex="1" connectable="0" parent="wdKCAiOJMTL116Rih4D4-17">
          <mxGeometry x="-0.0639" y="2" relative="1" as="geometry">
            <mxPoint x="-40" y="-12" as="offset" />
          </mxGeometry>
        </mxCell>
        <mxCell id="wdKCAiOJMTL116Rih4D4-19" value="2.3" style="swimlane;html=1;fontStyle=0;childLayout=stackLayout;horizontal=1;startSize=26;fillColor=#e0e0e0;horizontalStack=0;resizeParent=1;resizeLast=0;collapsible=1;marginBottom=0;swimlaneFillColor=#ffffff;align=center;rounded=1;shadow=0;comic=0;labelBackgroundColor=none;strokeWidth=1;fontFamily=Verdana;fontSize=12" vertex="1" parent="1">
          <mxGeometry x="-80" y="495" width="160" height="90" as="geometry" />
        </mxCell>
        <mxCell id="wdKCAiOJMTL116Rih4D4-25" value="&lt;span style=&quot;font-size: 18px;&quot;&gt;แก้ไขลูกค้า&lt;/span&gt;" style="text;html=1;strokeColor=none;fillColor=none;spacingLeft=4;spacingRight=4;whiteSpace=wrap;overflow=hidden;rotatable=0;points=[[0,0.5],[1,0.5]];portConstraint=eastwest;align=center;" vertex="1" parent="wdKCAiOJMTL116Rih4D4-19">
          <mxGeometry y="26" width="160" height="54" as="geometry" />
        </mxCell>
        <mxCell id="wdKCAiOJMTL116Rih4D4-21" value="" style="endArrow=classic;html=1;rounded=0;edgeStyle=orthogonalEdgeStyle;exitX=1;exitY=0.5;exitDx=0;exitDy=0;" edge="1" parent="1" source="wdKCAiOJMTL116Rih4D4-25">
          <mxGeometry width="50" height="50" relative="1" as="geometry">
            <mxPoint x="204.9411764705883" y="520" as="sourcePoint" />
            <mxPoint x="302.14" y="305" as="targetPoint" />
            <Array as="points">
              <mxPoint x="80" y="546" />
              <mxPoint x="302" y="546" />
            </Array>
          </mxGeometry>
        </mxCell>
        <mxCell id="wdKCAiOJMTL116Rih4D4-44" value="ข้อมูลลูกค้า" style="edgeLabel;html=1;align=center;verticalAlign=middle;resizable=0;points=[];" vertex="1" connectable="0" parent="wdKCAiOJMTL116Rih4D4-21">
          <mxGeometry x="-0.4597" y="4" relative="1" as="geometry">
            <mxPoint as="offset" />
          </mxGeometry>
        </mxCell>
        <mxCell id="wdKCAiOJMTL116Rih4D4-23" value="" style="endArrow=classic;html=1;rounded=0;exitX=0.75;exitY=1;exitDx=0;exitDy=0;edgeStyle=orthogonalEdgeStyle;" edge="1" parent="1">
          <mxGeometry width="50" height="50" relative="1" as="geometry">
            <mxPoint x="-310" y="320" as="sourcePoint" />
            <mxPoint x="-80" y="551" as="targetPoint" />
            <Array as="points">
              <mxPoint x="-310" y="551" />
            </Array>
          </mxGeometry>
        </mxCell>
        <mxCell id="wdKCAiOJMTL116Rih4D4-45" value="ข้อมูลลูกค้า" style="edgeLabel;html=1;align=center;verticalAlign=middle;resizable=0;points=[];" vertex="1" connectable="0" parent="wdKCAiOJMTL116Rih4D4-23">
          <mxGeometry x="0.3728" y="-4" relative="1" as="geometry">
            <mxPoint y="-3" as="offset" />
          </mxGeometry>
        </mxCell>
        <mxCell id="wdKCAiOJMTL116Rih4D4-31" value="2.4" style="swimlane;html=1;fontStyle=0;childLayout=stackLayout;horizontal=1;startSize=26;fillColor=#e0e0e0;horizontalStack=0;resizeParent=1;resizeLast=0;collapsible=1;marginBottom=0;swimlaneFillColor=#ffffff;align=center;rounded=1;shadow=0;comic=0;labelBackgroundColor=none;strokeWidth=1;fontFamily=Verdana;fontSize=12" vertex="1" parent="1">
          <mxGeometry x="-80" y="640" width="160" height="90" as="geometry" />
        </mxCell>
        <mxCell id="wdKCAiOJMTL116Rih4D4-32" value="&lt;span style=&quot;font-size: 18px;&quot;&gt;ลบลูกค้า&lt;/span&gt;" style="text;html=1;strokeColor=none;fillColor=none;spacingLeft=4;spacingRight=4;whiteSpace=wrap;overflow=hidden;rotatable=0;points=[[0,0.5],[1,0.5]];portConstraint=eastwest;align=center;" vertex="1" parent="wdKCAiOJMTL116Rih4D4-31">
          <mxGeometry y="26" width="160" height="54" as="geometry" />
        </mxCell>
        <mxCell id="wdKCAiOJMTL116Rih4D4-33" value="" style="endArrow=classic;html=1;rounded=0;exitX=0.667;exitY=1;exitDx=0;exitDy=0;edgeStyle=orthogonalEdgeStyle;exitPerimeter=0;" edge="1" parent="1" source="wdKCAiOJMTL116Rih4D4-3">
          <mxGeometry width="50" height="50" relative="1" as="geometry">
            <mxPoint x="-310" y="470" as="sourcePoint" />
            <mxPoint x="-80" y="701" as="targetPoint" />
            <Array as="points">
              <mxPoint x="-350" y="320" />
              <mxPoint x="-350" y="701" />
            </Array>
          </mxGeometry>
        </mxCell>
        <mxCell id="wdKCAiOJMTL116Rih4D4-35" value="" style="endArrow=classic;html=1;rounded=0;edgeStyle=orthogonalEdgeStyle;exitX=1;exitY=0.5;exitDx=0;exitDy=0;" edge="1" parent="1" source="wdKCAiOJMTL116Rih4D4-32">
          <mxGeometry width="50" height="50" relative="1" as="geometry">
            <mxPoint x="120" y="546" as="sourcePoint" />
            <mxPoint x="342.14" y="305" as="targetPoint" />
            <Array as="points">
              <mxPoint x="342" y="693" />
            </Array>
          </mxGeometry>
        </mxCell>
      </root>
    </mxGraphModel>
  </diagram>
</mxfile>
